<svg width="20" height="20" viewBox="0 0 20 20" fill="none" xmlns="http://www.w3.org/2000/svg">
<path d="M3.76811 10.1406L5.66654 9.44918C5.72514 9.42578 5.79545 9.41406 5.86572 9.41406H18.0298C18.3579 9.41406 18.6157 9.67184 18.6157 10V18.2422C18.6157 19.2148 17.8306 20 16.8579 20H5.13916C4.16646 20 3.38135 19.2148 3.38135 18.2422V10.6914C3.38135 10.4453 3.53373 10.2227 3.76811 10.1406Z" fill="#FC1A40"/>
<path d="M3.38135 10.6914V18.2422C3.38135 19.2148 4.16646 20 5.13916 20H10.9985V9.41406H5.86572C5.79541 9.41406 5.7251 9.42578 5.66654 9.44918L3.76811 10.1406C3.53373 10.2227 3.38135 10.4453 3.38135 10.6914Z" fill="#C60034"/>
<path d="M3.5921 3.81984C3.79128 3.01124 4.38898 2.37847 5.19757 2.12062C5.99445 1.87449 6.84996 2.05031 7.47101 2.61277L8.83043 3.80812L9.09992 2.01519C9.22882 1.19488 9.75617 0.50343 10.5413 0.175344C10.6936 0.116712 10.846 0.0698366 10.9983 0.0463991C11.6428 -0.0825072 12.3108 0.0581178 12.8499 0.456594C13.5648 0.972219 13.928 1.83941 13.8109 2.70656C13.6819 3.57374 13.096 4.31202 12.264 4.60499L10.9983 5.06202L9.43972 5.63624C9.428 5.63624 9.428 5.63624 9.428 5.63624L6.72097 6.6323C6.45148 6.72609 6.17023 6.773 5.9007 6.773C5.3264 6.773 4.76394 6.56199 4.31863 6.16359C3.66242 5.57765 3.38117 4.67527 3.5921 3.81984Z" fill="#FE9923"/>
<path d="M4.31885 6.16361C4.76416 6.56201 5.32666 6.77303 5.90092 6.77303C6.17041 6.77303 6.45166 6.72611 6.72119 6.63232L9.42822 5.63627C9.42822 5.63627 9.42822 5.63627 9.43994 5.63627L10.9985 5.06205V0.0463867C10.8462 0.0698633 10.6938 0.116699 10.5415 0.175332C9.75639 0.503418 9.229 1.19486 9.10014 2.01518L8.83064 3.80811L7.47123 2.61275C6.85018 2.05029 5.99467 1.87447 5.19779 2.12061C4.3892 2.37846 3.79154 3.01123 3.59232 3.81982C3.38135 4.67529 3.6626 5.57768 4.31885 6.16361Z" fill="#FE8821"/>
<path d="M1.37734 9.1445L2.17421 11.3476C2.268 11.582 2.49066 11.7226 2.72503 11.7226C2.79534 11.7226 2.86566 11.7109 2.92421 11.6875L8.98284 9.48439L9.53359 7.66798L10.9984 7.99607L12.2875 8.28904L18.3461 6.08591C18.6508 5.96876 18.8031 5.62888 18.6976 5.33591L17.8891 3.13286C17.7367 2.68755 17.4085 2.33591 16.9867 2.13673C16.5648 1.93755 16.0844 1.91408 15.6391 2.07814L10.9984 3.76564L10.6819 3.88279C10.6819 3.88279 9.41636 6.1797 9.38116 6.1797C9.35769 6.1797 8.85382 5.89845 8.36163 5.62888C7.86956 5.35935 7.37734 5.07814 7.37734 5.07814L2.43206 6.88279C1.98675 7.04685 1.63519 7.37501 1.43601 7.79689C1.23671 8.21872 1.21331 8.69923 1.37734 9.1445Z" fill="#FF3E75"/>
<path d="M1.37744 9.14449L2.17432 11.3476C2.26811 11.582 2.49076 11.7226 2.72514 11.7226C2.79545 11.7226 2.86576 11.7109 2.92432 11.6875L8.98295 9.48438L9.53369 7.66797L10.9985 7.99605V3.76562L10.6821 3.88277C10.6821 3.88277 9.4165 6.17969 9.38131 6.17969C9.35783 6.17969 8.85396 5.89844 8.36178 5.62887C7.86967 5.35934 7.37744 5.07812 7.37744 5.07812L2.43217 6.88277C1.98686 7.04684 1.63529 7.375 1.43611 7.79688C1.23682 8.21871 1.21342 8.69922 1.37744 9.14449Z" fill="#FC1A40"/>
<path d="M12.7563 9.41394V19.9999H9.24072V9.41394H12.7563Z" fill="#FCBF29"/>
<path d="M10.6821 3.88269L10.9986 4.74988L12.2876 8.28898L10.9986 8.75777L9.53373 9.28511L8.98299 9.48429L7.37744 5.07804L10.6821 3.88269Z" fill="#FCBF29"/>
<path d="M9.24072 9.41394H10.9985V19.9999H9.24072V9.41394Z" fill="#FE9923"/>
<path d="M7.37744 5.07804L8.98295 9.48429L9.53369 9.28507L10.9985 8.75773V4.74988L10.6821 3.88269L7.37744 5.07804Z" fill="#FE9923"/>
</svg>
