<svg width="1440" height="695" viewBox="0 0 1440 695" fill="none" xmlns="http://www.w3.org/2000/svg">
<g clip-path="url(#clip0_2001_1189)">
<path d="M0 0H1440V655C1440 677.091 1422.09 695 1400 695H40C17.9086 695 0 677.091 0 655V0Z" fill="url(#paint0_linear_2001_1189)"/>
<path d="M0 0H1440V655C1440 677.091 1422.09 695 1400 695H40C17.9086 695 0 677.091 0 655V0Z" fill="black" fill-opacity="0.2"/>
<path d="M55.5476 -642.781C78.8535 -692.241 137.842 -713.444 187.302 -690.138L582.614 -503.866C632.075 -480.56 653.277 -421.571 629.971 -372.111L443.699 23.2012C420.393 72.6616 361.405 93.8639 311.944 70.5581L-83.3679 -115.714C-132.828 -139.02 -154.031 -198.009 -130.725 -247.469L55.5476 -642.781Z" fill="#F7DBA7"/>
<rect x="140.603" y="163" width="67.1033" height="67.1033" rx="20" transform="rotate(25.23 140.603 163)" fill="#F7DBA7"/>
<path opacity="0.4" d="M1089.72 -10.3151C1135.29 -40.5167 1196.73 -28.0518 1226.93 17.5261L1468.32 381.808C1498.52 427.386 1486.05 488.817 1440.47 519.019L1076.19 760.406C1030.61 790.608 969.183 778.143 938.981 732.565L697.594 368.283C667.392 322.705 679.857 261.274 725.435 231.072L1089.72 -10.3151Z" fill="#F7DBA7"/>
<rect x="972.727" y="87.0781" width="542.917" height="635" rx="99" transform="rotate(25.23 972.727 87.0781)" fill="#F7DBA7"/>
<path d="M1614.1 224.863C1595.6 173.413 1538.89 146.705 1487.44 165.209L905.53 374.496C854.081 393 827.373 449.708 845.877 501.158L1049.45 1067.18C1067.95 1118.63 1124.66 1145.34 1176.11 1126.84L1758.02 917.551C1809.47 899.047 1836.18 842.338 1817.68 790.888L1614.1 224.863Z" fill="#002A48"/>
</g>
<defs>
<linearGradient id="paint0_linear_2001_1189" x1="0" y1="0" x2="1506.5" y2="713" gradientUnits="userSpaceOnUse">
<stop offset="0.0616933" stop-color="#FCEED5"/>
<stop offset="0.751415" stop-color="#FCEED5"/>
<stop offset="1" stop-color="#FFE7BA"/>
</linearGradient>
<clipPath id="clip0_2001_1189">
<path d="M0 0H1440V655C1440 677.091 1422.09 695 1400 695H40C17.9086 695 0 677.091 0 655V0Z" fill="white"/>
</clipPath>
</defs>
</svg>
