<svg width="104" height="44" viewBox="0 0 104 44" fill="none" xmlns="http://www.w3.org/2000/svg">
<g clip-path="url(#clip0_234_863)">
<path d="M19 31C23.4183 31 27 27.4183 27 23C27 18.5817 23.4183 15 19 15C14.5817 15 11 18.5817 11 23C11 27.4183 14.5817 31 19 31Z" fill="#D80027"/>
<path d="M19 19.1738L19.8634 21.831H22.6573L20.397 23.4732L21.2603 26.1304L19 24.4881L16.7397 26.1304L17.6031 23.4732L15.3428 21.831H18.1366L19 19.1738Z" fill="#FFDA44"/>
</g>
<path d="M40.808 27.5L44.824 16.3H43.208L39.976 25.644L36.728 16.3H35.128L39.128 27.5H40.808ZM53.0975 24.652L47.3375 16.3H46.1375V27.5H47.6255V19.132L53.3855 27.5H54.5855V16.3H53.0975V24.652ZM56.9813 16.3V27.5H61.3493C62.8693 27.5 64.1333 26.956 65.1413 25.884C66.1493 24.796 66.6613 23.468 66.6613 21.9C66.6613 20.332 66.1493 19.004 65.1413 17.932C64.1333 16.844 62.8693 16.3 61.3493 16.3H56.9813ZM58.4693 26.092V17.708H61.3493C62.4853 17.708 63.4293 18.108 64.1493 18.908C64.8693 19.708 65.2373 20.7 65.2373 21.9C65.2373 23.1 64.8693 24.092 64.1493 24.892C63.4293 25.692 62.4853 26.092 61.3493 26.092H58.4693Z" fill="#002A48"/>
<path d="M87 22L84 25L81 22" stroke="#002A48" stroke-width="2" stroke-linecap="round" stroke-linejoin="round"/>
<defs>
<clipPath id="clip0_234_863">
<rect width="16" height="16" fill="white" transform="translate(11 15)"/>
</clipPath>
</defs>
</svg>
